PathFileType	4	(X/Y/Z)	C:\Users\86182\Documents\cortex\Trimmed_M1_H16.trc
DataRate	CameraRate	NumFrames	NumMarkers	Units	OrigDataRate	OrigDataStartFrame	OrigNumFrames
100.00	100.00	       140	2	mm	100.00	361	       901
Frame#	Time	gripper			box			
		X1	Y1	Z1	X2	Y2	Z2	

361	3.600	204.66226	209.08952	290.99323	231.31223	205.52838	138.56618	
362	3.610	204.68221	209.09520	291.33304	231.30896	205.52863	138.92218	
363	3.620	204.70523	209.10007	291.65445	231.32582	205.53123	139.25183	
364	3.630	204.73071	209.10580	291.95456	231.35863	205.53578	139.55835	
365	3.640	204.75415	209.11293	292.23322	231.39995	205.54291	139.84491	
366	3.650	204.76894	209.12059	292.49158	231.43883	205.55342	140.11319	
367	3.660	204.77005	209.12790	292.72983	231.46347	205.56705	140.36301	
368	3.670	204.75716	209.13496	292.94617	231.46782	205.58173	140.59160	
369	3.680	204.73508	209.14253	293.13776	231.45480	205.59491	140.79385	
370	3.690	204.71121	209.15106	293.30219	231.43199	205.60547	140.96613	
371	3.700	204.69258	209.16068	293.43872	231.40549	205.61389	141.10956	
372	3.710	204.68365	209.17126	293.54852	231.37793	205.62143	141.22934	
373	3.720	204.68579	209.18279	293.63525	231.34956	205.62926	141.33173	
374	3.730	204.69772	209.19557	293.70374	231.32013	205.63782	141.42117	
375	3.740	204.71701	209.21016	293.75879	231.29071	205.64665	141.49876	
376	3.750	204.74083	209.22670	293.80481	231.26315	205.65445	141.56366	
377	3.760	204.76637	209.24432	293.84476	231.23808	205.65979	141.61523	
378	3.770	204.79102	209.26132	293.87982	231.21524	205.66219	141.65433	
379	3.780	204.81317	209.27597	293.90948	231.19492	205.66229	141.68269	
380	3.790	204.83247	209.28732	293.93283	231.17813	205.66125	141.70242	
381	3.800	204.84903	209.29523	293.94943	231.16638	205.66002	141.71503	
382	3.810	204.86273	209.30025	293.95959	231.16150	205.65907	141.72113	
383	3.820	204.87358	209.30330	293.96436	231.16479	205.65849	141.72113	
384	3.830	204.88194	209.30525	293.96484	231.17575	205.65828	141.71631	
385	3.840	204.88815	209.30669	293.96240	231.19214	205.65860	141.70895	
386	3.850	204.89223	209.30772	293.95834	231.21135	205.65964	141.70111	
387	3.860	204.89398	209.30804	293.95337	231.23105	205.66132	141.69415	
388	3.870	204.89301	209.30682	293.94733	231.24878	205.66312	141.68845	
389	3.880	204.88850	209.30304	293.93924	231.26158	205.66367	141.68347	
390	3.890	204.87909	209.29546	293.92715	231.26616	205.66071	141.67773	
391	3.900	204.86301	209.28273	293.90854	231.25909	205.65102	141.66898	
392	3.910	204.83847	209.26384	293.88089	231.23683	205.63107	141.65454	
393	3.920	204.80466	209.23862	293.84274	231.19577	205.59773	141.63243	
394	3.930	204.76210	209.20781	293.79443	231.13373	205.54932	141.60263	
395	3.940	204.71271	209.17302	293.73816	231.05180	205.48662	141.56729	
396	3.950	204.65906	209.13623	293.67719	230.95518	205.41299	141.53000	
397	3.960	204.60417	209.09987	293.61536	230.85236	205.33299	141.49440	
398	3.970	204.55139	209.06635	293.55701	230.75267	205.25130	141.46323	
399	3.980	204.50397	209.03769	293.50635	230.66455	205.17332	141.43777	
400	3.990	204.46460	209.01509	293.46628	230.59424	205.10542	141.41815	
401	4.000	204.43544	208.99895	293.43805	230.54509	205.05315	141.40430	
402	4.010	204.41811	208.98930	293.42166	230.51831	205.01959	141.39572	
403	4.020	204.41296	208.98584	293.41595	230.51361	205.00499	141.39148	
404	4.030	204.41850	208.98766	293.41870	230.52751	205.00655	141.39027	
405	4.040	204.43127	208.99297	293.42694	230.55290	205.01895	141.39102	
406	4.050	204.44676	208.99954	293.43732	230.58133	205.03586	141.39279	
407	4.060	204.46098	209.00548	293.44687	230.60513	205.05165	141.39514	
408	4.070	204.47131	209.00954	293.45361	230.61902	205.06248	141.39780	
409	4.080	204.47668	209.01114	293.45667	230.62227	205.06651	141.40005	
410	4.090	204.47707	209.01021	293.45587	230.61928	205.06366	141.40021	
411	4.100	204.47333	209.00714	293.45184	230.61609	205.05568	141.39706	
412	4.110	204.46703	209.00275	293.44580	230.61545	205.04575	141.39153	
413	4.120	204.46036	208.99821	293.43958	230.61595	205.03725	141.38617	
414	4.130	204.45561	208.99481	293.43509	230.61592	205.03238	141.38300	
415	4.140	204.45432	208.99345	293.43362	230.61588	205.03191	141.38239	
416	4.150	204.45668	208.99449	293.43552	230.61729	205.03555	141.38373	
417	4.160	204.46178	208.99756	293.44009	230.62044	205.04240	141.38643	
418	4.170	204.46786	209.00169	293.44586	230.62378	205.05081	141.39011	
419	4.180	204.47293	209.00552	293.45090	230.62440	205.05852	141.39442	
420	4.190	204.47534	209.00793	293.45367	230.62003	205.06310	141.39880	
421	4.200	204.47426	209.00841	293.45349	230.61128	205.06308	141.40204	
422	4.210	204.46973	209.00700	293.45032	230.60135	205.05852	141.40298	
423	4.220	204.46269	209.00433	293.44513	230.59323	205.05113	141.40152	
424	4.230	204.45509	209.00153	293.43954	230.58826	205.04323	141.39853	
425	4.240	204.44940	208.99985	293.43564	230.58676	205.03670	141.39511	
426	4.250	204.44769	209.00006	293.43494	230.58873	205.03256	141.39185	
427	4.260	204.45068	209.00223	293.43781	230.59384	205.03108	141.38901	
428	4.270	204.45749	209.00575	293.44348	230.60143	205.03194	141.38667	
429	4.280	204.46599	209.00969	293.45026	230.61029	205.03441	141.38486	
430	4.290	204.47388	209.01320	293.45642	230.61906	205.03761	141.38350	
431	4.300	204.47943	209.01572	293.46082	230.62636	205.04068	141.38263	
432	4.310	204.48172	209.01700	293.46277	230.63094	205.04283	141.38223	
433	4.320	204.48044	209.01697	293.46216	230.63170	205.04343	141.38231	
434	4.330	204.47583	209.01566	293.45901	230.62808	205.04214	141.38287	
435	4.340	204.46873	209.01320	293.45392	230.62083	205.03923	141.38385	
436	4.350	204.46069	209.00992	293.44781	230.61206	205.03561	141.38492	
437	4.360	204.45383	209.00653	293.44220	230.60423	205.03233	141.38586	
438	4.370	204.45020	209.00404	293.43875	230.59901	205.03014	141.38649	
439	4.380	204.45100	209.00327	293.43863	230.59702	205.02930	141.38672	
440	4.390	204.45599	209.00444	293.44186	230.59790	205.02969	141.38663	
441	4.400	204.46359	209.00706	293.44733	230.60048	205.03081	141.38635	
442	4.410	204.47160	209.01027	293.45337	230.60294	205.03186	141.38606	
443	4.420	204.47812	209.01323	293.45853	230.60350	205.03209	141.38599	
444	4.430	204.48203	209.01549	293.46198	230.60141	205.03117	141.38620	
445	4.440	204.48291	209.01689	293.46332	230.59731	205.02937	141.38664	
446	4.450	204.48083	209.01744	293.46268	230.59253	205.02730	141.38718	
447	4.460	204.47636	209.01723	293.46033	230.58829	205.02544	141.38763	
448	4.470	204.47050	209.01640	293.45691	230.58534	205.02415	141.38794	
449	4.480	204.46483	209.01515	293.45331	230.58414	205.02364	141.38809	
450	4.490	204.46115	209.01376	293.45056	230.58496	205.02399	141.38800	
451	4.500	204.46080	209.01270	293.44971	230.58792	205.02527	141.38766	
452	4.510	204.46384	209.01234	293.45096	230.59294	205.02747	141.38712	
453	4.520	204.46896	209.01270	293.45370	230.59966	205.03038	141.38638	
454	4.530	204.47446	209.01331	293.45682	230.60709	205.03362	141.38556	
455	4.540	204.47887	209.01370	293.45923	230.61348	205.03639	141.38486	
456	4.550	204.48137	209.01341	293.46027	230.61674	205.03781	141.38449	
457	4.560	204.48160	209.01218	293.45953	230.61557	205.03731	141.38463	
458	4.570	204.47972	209.00999	293.45715	230.61050	205.03511	141.38519	
459	4.580	204.47639	209.00720	293.45367	230.60355	205.03209	141.38596	
460	4.590	204.47278	209.00455	293.45016	230.59682	205.02916	141.38670	
461	4.600	204.47035	209.00301	293.44794	230.59157	205.02687	141.38730	
462	4.610	204.47020	209.00322	293.44800	230.58833	205.02547	141.38763	
463	4.620	204.47243	209.00514	293.45038	230.58707	205.02492	141.38779	
464	4.630	204.47621	209.00812	293.45419	230.58742	205.02507	141.38773	
465	4.640	204.48042	209.01134	293.45840	230.58873	205.02563	141.38757	
466	4.650	204.48418	209.01418	293.46210	230.59012	205.02625	141.38742	
467	4.660	204.48694	209.01624	293.46484	230.59071	205.02650	141.38736	
468	4.670	204.48849	209.01736	293.46634	230.59012	205.02625	141.38744	
469	4.680	204.48882	209.01753	293.46661	230.58865	205.02560	141.38760	
470	4.690	204.48801	209.01678	293.46573	230.58690	205.02484	141.38779	
471	4.700	204.48624	209.01526	293.46387	230.58530	205.02414	141.38797	
472	4.710	204.48386	209.01315	293.46130	230.58406	205.02361	141.38812	
473	4.720	204.48134	209.01089	293.45856	230.58325	205.02324	141.38821	
474	4.730	204.47939	209.00911	293.45642	230.58281	205.02306	141.38824	
475	4.740	204.47861	209.00841	293.45557	230.58269	205.02301	141.38828	
476	4.750	204.47911	209.00897	293.45621	230.58276	205.02304	141.38828	
477	4.760	204.48035	209.01048	293.45779	230.58295	205.02312	141.38824	
478	4.770	204.48148	209.01233	293.45959	230.58310	205.02319	141.38821	
479	4.780	204.48174	209.01401	293.46082	230.58313	205.02321	141.38821	
480	4.790	204.48068	209.01512	293.46106	230.58296	205.02313	141.38821	
481	4.800	204.47827	209.01552	293.46014	230.58269	205.02301	141.38824	
482	4.810	204.47502	209.01524	293.45837	230.58240	205.02289	141.38828	
483	4.820	204.47192	209.01445	293.45633	230.58226	205.02283	141.38828	
484	4.830	204.47014	209.01340	293.45477	230.58241	205.02289	141.38828	
485	4.840	204.47034	209.01244	293.45422	230.58305	205.02316	141.38821	
486	4.850	204.47241	209.01199	293.45496	230.58430	205.02371	141.38806	
487	4.860	204.47578	209.01230	293.45679	230.58629	205.02457	141.38785	
488	4.870	204.47969	209.01328	293.45935	230.58905	205.02577	141.38754	
489	4.880	204.48337	209.01457	293.46201	230.59235	205.02721	141.38719	
490	4.890	204.48631	209.01579	293.46423	230.59563	205.02863	141.38684	
491	4.900	204.48828	209.01671	293.46582	230.59795	205.02965	141.38660	
492	4.910	204.48924	209.01721	293.46661	230.59834	205.02982	141.38657	
493	4.920	204.48933	209.01729	293.46674	230.59662	205.02907	141.38676	
494	4.930	204.48871	209.01701	293.46625	230.59354	205.02773	141.38712	
495	4.940	204.48758	209.01653	293.46536	230.59015	205.02626	141.38748	
496	4.950	204.48630	209.01601	293.46439	230.58717	205.02496	141.38782	
497	4.960	204.48520	209.01572	293.46365	230.58487	205.02396	141.38805	
498	4.970	204.48462	209.01581	293.46341	230.58330	205.02327	141.38821	
499	4.980	204.48462	209.01616	293.46362	230.58235	205.02286	141.38831	
500	4.990	204.48495	209.01654	293.46405	230.58186	205.02266	141.38835	
